<?xml version="1.0" standalone="no"?>
<!DOCTYPE svg PUBLIC "-//W3C//DTD SVG 20010904//EN"
 "http://www.w3.org/TR/2001/REC-SVG-20010904/DTD/svg10.dtd">
<svg version="1.0" xmlns="http://www.w3.org/2000/svg"
 width="294.000000pt" height="300.000000pt" viewBox="0 0 294.000000 300.000000"
 preserveAspectRatio="xMidYMid meet">

<g transform="translate(0.000000,300.000000) scale(0.100000,-0.100000)"
fill="#de3387" stroke="none">
<path d="M449 2948 c-50 -188 -73 -478 -50 -653 23 -182 51 -270 51 -163 0
154 65 625 90 651 4 5 39 -19 78 -52 120 -103 252 -264 340 -414 34 -59 49
-76 61 -71 51 21 139 44 230 59 193 33 508 8 645 -50 43 -18 41 -19 73 40 31
59 117 181 180 257 63 75 230 238 245 238 24 0 75 -334 94 -613 4 -55 10 -93
14 -85 16 29 41 200 47 318 7 147 -8 314 -42 466 -14 59 -27 109 -29 111 -8 8
-62 -26 -152 -95 -116 -90 -283 -264 -361 -377 -34 -50 -68 -98 -75 -107 -12
-16 -18 -16 -93 2 -116 29 -284 43 -405 36 -93 -6 -271 -36 -314 -52 -10 -4
-24 8 -42 38 -87 139 -255 328 -383 432 -76 61 -169 126 -182 126 -4 0 -13
-19 -20 -42z"/>
<path d="M615 2085 c-243 -109 -450 -295 -584 -522 -35 -60 -39 -56 67 -68
147 -16 374 -101 499 -186 255 -173 462 -451 567 -764 l34 -100 48 -12 c110
-28 394 -25 475 5 14 5 31 40 58 118 46 134 129 296 208 406 71 99 203 235
298 306 144 108 388 208 557 227 106 12 102 8 67 68 -98 165 -232 308 -391
414 -92 62 -293 161 -304 151 -2 -3 36 -31 84 -64 106 -72 288 -249 371 -362
33 -46 61 -87 61 -91 0 -5 -38 -18 -83 -30 -211 -56 -419 -181 -597 -360 -168
-169 -302 -379 -376 -588 -23 -66 -33 -83 -53 -88 -31 -8 -271 -8 -302 0 -20
5 -30 22 -53 88 -74 209 -208 419 -376 588 -176 177 -370 295 -584 356 -50 14
-93 27 -95 29 -7 6 48 85 116 166 85 102 216 224 311 289 127 86 124 90 -23
24z"/>
<path d="M843 1514 c-13 -3 -23 -9 -23 -13 0 -4 35 -37 79 -74 43 -36 111
-102 152 -146 84 -93 94 -91 87 14 -8 123 -96 213 -215 220 -32 2 -68 1 -80
-1z"/>
<path d="M1970 1511 c-75 -24 -128 -71 -156 -136 -17 -40 -23 -142 -10 -163 4
-7 44 27 107 92 55 57 125 123 155 147 33 25 51 46 46 51 -13 13 -112 19 -142
9z"/>
<path d="M775 953 c-116 -82 -293 -148 -452 -169 l-52 -6 14 -27 c7 -14 40
-65 72 -113 214 -319 505 -526 847 -605 152 -36 360 -37 516 -4 261 55 489
187 692 399 86 90 248 311 248 339 0 6 -25 14 -55 18 -146 18 -310 78 -427
158 -71 47 -79 48 -51 7 73 -108 193 -196 313 -231 25 -7 49 -15 53 -19 14
-12 -106 -161 -202 -253 -241 -228 -511 -341 -821 -341 -320 0 -608 124 -850
366 -80 79 -186 215 -177 224 3 4 35 17 71 29 36 13 86 35 111 49 62 37 156
126 183 175 13 22 22 41 20 40 -2 0 -25 -16 -53 -36z"/>
<path d="M1406 834 c-59 -59 -20 -154 64 -154 55 0 90 34 90 88 0 83 -96 124
-154 66z"/>
</g>
</svg>
