<svg width="35" height="40" viewBox="0 0 35 40" fill="none" xmlns="http://www.w3.org/2000/svg">
<path fill-rule="evenodd" clip-rule="evenodd" d="M21.2353 33.4682C28.575 31.5862 34 24.9266 34 17C34 7.61116 26.3888 0 17 0C7.61116 0 0 7.61116 0 17C0 24.8656 5.34187 31.4836 12.5956 33.4239L15.1962 37.9282C15.966 39.2615 17.8905 39.2615 18.6603 37.9282L21.2353 33.4682Z" fill="url(#paint0_linear_52_1014)"/>
<path fill-rule="evenodd" clip-rule="evenodd" d="M8.64563 14.4221C9.26129 12.3493 11.2667 10.8306 13.6383 10.8306C14.9425 10.8306 16.0839 11.3543 16.9952 12.1108C17.9068 11.3541 19.0481 10.8306 20.3522 10.8306C22.8352 10.8306 24.9175 12.4964 25.423 14.7189C25.5171 15.06 25.5551 15.4051 25.5487 15.7452C25.5357 16.4622 25.343 17.153 25.0958 17.7561C24.3818 19.5012 23.0686 21.0739 21.5936 22.2347C20.1186 23.3956 18.4903 24.1691 16.994 24.1691C15.5043 24.1691 13.888 23.4017 12.42 22.2487C10.957 21.0995 9.65214 19.5417 8.92273 17.8129C8.41102 16.7513 8.31177 15.5453 8.64563 14.4221Z" fill="white"/>
<defs>
<linearGradient id="paint0_linear_52_1014" x1="28.8679" y1="-12.3623" x2="-4.8574" y2="20.718" gradientUnits="userSpaceOnUse">
<stop stop-color="#FD79AF"/>
<stop offset="1" stop-color="#FD65B7"/>
</linearGradient>
</defs>
</svg>
