<svg width="24" height="24" viewBox="0 0 24 24" fill="none" xmlns="http://www.w3.org/2000/svg">
<path d="M18.8354 13.1482L8.97516 13.1482L12.8261 16.9681C13.2764 17.4339 13.2764 18.1637 12.8261 18.6296C12.3758 19.0799 11.6304 19.0799 11.1801 18.6296L5.32609 12.8066C4.8913 12.3718 4.8913 11.5954 5.32609 11.1606L11.1801 5.33763C11.6304 4.88732 12.3758 4.88732 12.8261 5.33763C13.0435 5.57054 13.1677 5.86713 13.1677 6.16061C13.1677 6.45564 13.0435 6.7662 12.8261 6.98359L8.97515 10.819L18.8354 10.819C19.4876 10.819 20 11.3314 20 11.9836C20 12.6202 19.4876 13.1482 18.8354 13.1482Z" fill="#22313F"/>
</svg>
